<svg xmlns="http://www.w3.org/2000/svg" width="24.781" height="20"><path d="M24.785 2.37a10.275 10.275 0 0 1-2.925.78A5.057 5.057 0 0 0 24.093.37a10.028 10.028 0 0 1-3.224 1.22 5.089 5.089 0 0 0-8.794 3.45 5.715 5.715 0 0 0 .126 1.16A14.459 14.459 0 0 1 1.725.91a5.03 5.03 0 0 0 1.573 6.75 5.063 5.063 0 0 1-2.3-.64v.07a5.056 5.056 0 0 0 4.074 4.95 5.378 5.378 0 0 1-1.337.17 6.066 6.066 0 0 1-.96-.08 5.09 5.09 0 0 0 4.751 3.5 10.219 10.219 0 0 1-6.308 2.16c-.425 0-.818-.02-1.227-.06a14.491 14.491 0 0 0 7.8 2.26A14.308 14.308 0 0 0 22.247 5.63c0-.22 0-.43-.016-.65a10.905 10.905 0 0 0 2.554-2.61z" fill="#fff" fill-rule="evenodd"/></svg>