<svg xmlns="http://www.w3.org/2000/svg" width="39" height="39" viewBox="0 0 39 39"><g><g><path fill="#ececec" d="M39 37.781c0 .674-.545 1.219-1.219 1.219H8.531a1.218 1.218 0 1 1 0-2.437h29.25c.674 0 1.219.545 1.219 1.218zm0-24.375v4.875c0 8.75-7.094 15.844-15.844 15.844-5.653 0-10.602-2.97-13.406-7.427v.115H7.312A7.313 7.313 0 0 1 0 19.5v-4.875a2.436 2.436 0 0 1 2.438-2.438H37.78c.674 0 1.219.546 1.219 1.22zM8.531 24.375a15.776 15.776 0 0 1-1.219-6.094v-3.656H3.656c-.673 0-1.218.545-1.218 1.219V19.5a4.875 4.875 0 0 0 4.874 4.875zm28.032-9.75H9.75v3.656c0 7.405 6.002 13.407 13.406 13.407 7.404 0 13.407-6.002 13.407-13.407zM21.937 8.53V1.22a1.218 1.218 0 1 1 2.438 0V8.53a1.218 1.218 0 1 1-2.438 0zm-7.312 0V3.656a1.218 1.218 0 1 1 2.437 0v4.875a1.218 1.218 0 1 1-2.437 0zm14.625 0V6.094a1.218 1.218 0 1 1 2.437 0V8.53a1.218 1.218 0 1 1-2.437 0z"/><path fill="#ececec" d="M39 37.781c0 .674-.545 1.219-1.219 1.219H8.531a1.218 1.218 0 1 1 0-2.437h29.25c.674 0 1.219.545 1.219 1.218zm0-24.375v4.875c0 8.75-7.094 15.844-15.844 15.844-5.653 0-10.602-2.97-13.406-7.427v.115H7.312A7.313 7.313 0 0 1 0 19.5v-4.875a2.436 2.436 0 0 1 2.438-2.438H37.78c.674 0 1.219.546 1.219 1.22zM8.531 24.375a15.776 15.776 0 0 1-1.219-6.094v-3.656H3.656c-.673 0-1.218.545-1.218 1.219V19.5a4.875 4.875 0 0 0 4.874 4.875zm28.032-9.75H9.75v3.656c0 7.405 6.002 13.407 13.406 13.407 7.404 0 13.407-6.002 13.407-13.407zM21.937 8.53V1.22a1.218 1.218 0 1 1 2.438 0V8.53a1.218 1.218 0 1 1-2.438 0zm-7.312 0V3.656a1.218 1.218 0 1 1 2.437 0v4.875a1.218 1.218 0 1 1-2.437 0zm14.625 0V6.094a1.218 1.218 0 1 1 2.437 0V8.53a1.218 1.218 0 1 1-2.437 0z"/></g></g></svg>